<svg version="1.1" id="Layer_1" xmlns="http://www.w3.org/2000/svg" xmlns:xlink="http://www.w3.org/1999/xlink" x="0px" y="0px"
	 width="315.5px" height="342.5px" viewBox="0 0 315.5 342.5" style="enable-background:new 0 0 315.5 342.5;" xml:space="preserve"
	>
<defs>
	<style type="text/css">
		.st0{fill:none;stroke:#5CB75B;stroke-width:17;stroke-linecap:round;stroke-miterlimit:10;}
		.st1{fill:none;stroke:#ffffff;stroke-miterlimit:10;}
		.st2{fill: #ffffff}
		.bar {
			stroke-dasharray: 100;
			stroke-dashoffset: 0;
			-webkit-animation: bar_object 10s ease forwards;
			-moz-animation: bar_object 10s ease forwards;
			-o-animation: bar_object 10s ease forwards;
			animation: bar_object 10s ease forwards;
		}
		@-webkit-keyframes bar_object {
			from {
				stroke-dashoffset: 100;
			}
			to {
				stroke-dashoffset: 0;
			}
		}
		@-moz-keyframes bar_object {
			from {
				stroke-dashoffset: 100;
			}
			to {
				stroke-dashoffset: 0;
			}
		}
		@-o-keyframes bar_object {
			from {
				stroke-dashoffset: 100;
			}
			to {
				stroke-dashoffset: 0;
			}
		}
		@keyframes bar_object {
			from {
				stroke-dashoffset: 100;
			}
			to {
				stroke-dashoffset: 0;
			}
		}
		.pie-stroke {			
			stroke-dasharray: 350;
			stroke-dashoffset: 0;
			-webkit-animation: pie_object_stroke 4s ease 0.1s forwards;
			-moz-animation: pie_object_stroke 4s ease 0.1s forwards;
			-o-animation: pie_object_stroke 4s ease 0.1s forwards;
			animation: pie_object_stroke 4s ease 0.1s forwards;
		}
		@-webkit-keyframes pie_object_stroke {
			from {
				stroke-dashoffset: 350;
			}
			to {
				stroke-dashoffset: 0;
				stroke: #5CB75B;
			}
		}
		@-moz-keyframes pie_object_stroke {
			from {
				stroke-dashoffset: 350;
			}
			to {
				stroke-dashoffset: 0;
				stroke: #5CB75B;
			}
		}
		@-o-keyframes pie_object_stroke {
			from {
				stroke-dashoffset: 350;
			}
			to {
				stroke-dashoffset: 0;
				stroke: #5CB75B;
			}
		}
		@keyframes pie_object_stroke {
			from {
				stroke-dashoffset: 350;
			}
			to {
				stroke-dashoffset: 0;
				stroke: #5CB75B;
			}
		}
		.pie-fill {	
			-webkit-animation: pie_object_fill 4s ease 3s forwards;
			-moz-animation: pie_object_fill 4s ease 3s forwards;
			-o-animation: pie_object_fill 4s ease 3s forwards;
			animation: pie_object_fill 4s ease 3s forwards;
		}
		@-webkit-keyframes pie_object_fill {
			to {
				fill: #5CB75B;
			}
		}
		@-moz-keyframes pie_object_fill {
			to {
				fill: #5CB75B;
			}
		}
		@-o-keyframes pie_object_fill {
			to {
				fill: #5CB75B;
			}
		}
		@keyframes pie_object_fill {
			to {
				fill: #5CB75B;
			}
		}
		.boundary-stroke {			
			stroke-dasharray: 1850;
			stroke-dashoffset: 0;
			-webkit-animation: boundary_object_stroke 4s ease 0.5s forwards;
			-moz-animation: boundary_object_stroke 4s ease 0.5s forwards;
			-o-animation: boundary_object_stroke 4s ease 0.5s forwards;
			animation: boundary_object_stroke 4s ease 0.5s forwards;
		}
		@-webkit-keyframes boundary_object_stroke {
			from {
				stroke-dashoffset: 1850;
			}
			to {
				stroke-dashoffset: 0;
				stroke: #5CB75B;
			}
		}
		@-moz-keyframes boundary_object_stroke {
			from {
				stroke-dashoffset: 1850;
			}
			to {
				stroke-dashoffset: 0;
				stroke: #5CB75B;
			}
		}
		@-o-keyframes boundary_object_stroke {
			from {
				stroke-dashoffset: 1850;
			}
			to {
				stroke-dashoffset: 0;
				stroke: #5CB75B;
			}
		}

		@keyframes boundary_object_stroke {
			from {
				stroke-dashoffset: 1850;
			}
			to {
				stroke-dashoffset: 0;
				stroke: #5CB75B;
			}
		}
		.boundary-fill {	
			-webkit-animation: boundary_object_fill 4s ease 3s forwards;
			-moz-animation: boundary_object_fill 4s ease 3s forwards;
			-o-animation: boundary_object_fill 4s ease 3s forwards;
			animation: boundary_object_fill 4s ease 3s forwards;
		}

		@-webkit-keyframes boundary_object_fill {
			to {
				fill: #5CB75B;
			}
		}
		@-moz-keyframes boundary_object_fill {
			to {
				fill: #5CB75B;
			}
		}
		@-o-keyframes boundary_object_fill {
			to {
				fill: #5CB75B;
			}
		}
		@keyframes boundary_object_fill {
			to {
				fill: #5CB75B;
			}
		}
	</style>
</defs>
<path id="file_x5F_boundary_x5F_fill" class="st2 boundary-fill" d="M172.402,316.68H24.82V24.32h159.122v44.332c0,4.479,3.629,8.104,8.105,8.104
	h43.035l0.004,145.257c7.535,0.172,14.883,1.566,21.813,4.146V64.695c0-1.734-0.688-3.398-1.914-4.629L199.332,4.414
	c-1.227-1.223-2.891-1.914-4.629-1.914H22.637C11.809,2.5,3,11.304,3,22.133v296.734c0,10.824,8.809,19.633,19.637,19.633h165.578
	C181.574,332.406,176.172,324.992,172.402,316.68L172.402,316.68z"/>
<path id="file_x5F_boundary_x5F_stroke" class="st1 boundary-stroke" d="M172.402,316.68H24.82V24.32h159.122v44.332
	c0,4.479,3.629,8.104,8.105,8.104h43.035l0.004,145.257c7.535,0.172,14.883,1.566,21.813,4.146V64.695
	c0-1.734-0.688-3.398-1.914-4.629L199.332,4.414c-1.227-1.223-2.891-1.914-4.629-1.914H22.637C11.809,2.5,3,11.304,3,22.133v296.734
	c0,10.824,8.809,19.633,19.637,19.633h165.578C181.574,332.406,176.172,324.992,172.402,316.68L172.402,316.68z"/>
<path id="check_x5F_mark_x5F_fill" class="st2 boundary-fill" d="M313.059,251.82c0-3.668-1.426-7.117-4.02-9.715l-10.277-10.273
	c-2.594-2.594-6.043-4.021-9.711-4.021c-3.664,0-7.117,1.43-9.711,4.021l-15.68,15.684c-8.379-6.008-18.645-9.543-29.734-9.543
	c-28.219,0-51.094,22.879-51.094,51.098c0,28.215,22.875,51.094,51.094,51.094c28.215,0,51.094-22.879,51.094-51.094
	c0-1.146-0.043-2.277-0.117-3.402l24.137-24.133C311.633,258.938,313.059,255.488,313.059,251.82L313.059,251.82z M297.887,254.871
	l-49.145,49.146c-1.035,1.031-2.441,1.613-3.902,1.613h-0.004c-1.465,0-2.871-0.586-3.902-1.617l-22.771-22.809
	c-2.151-2.156-2.151-5.648,0-7.809l4.387-4.383c2.156-2.156,5.646-2.156,7.808-0.005l14.481,14.442l40.813-40.813
	c1.035-1.035,2.438-1.617,3.902-1.617s2.87,0.582,3.905,1.617l4.427,4.426C300.043,249.223,300.043,252.715,297.887,254.871
	L297.887,254.871z"/>
<path id="check_x5F_mark_x5F_stroke_1" class="st1 boundary-stroke" d="M313.059,251.82c0-3.668-1.426-7.117-4.02-9.715l-10.277-10.273
	c-2.594-2.594-6.043-4.021-9.711-4.021c-3.664,0-7.117,1.43-9.711,4.021l-15.68,15.684c-8.379-6.008-18.645-9.543-29.734-9.543
	c-28.219,0-51.094,22.879-51.094,51.098c0,28.215,22.875,51.094,51.094,51.094c28.215,0,51.094-22.879,51.094-51.094
	c0-1.146-0.043-2.277-0.117-3.402l24.137-24.133C311.633,258.938,313.059,255.488,313.059,251.82L313.059,251.82z M297.887,254.871
	l-49.145,49.146c-1.035,1.031-2.441,1.613-3.902,1.613h-0.004c-1.465,0-2.871-0.586-3.902-1.617l-22.771-22.809
	c-2.151-2.156-2.151-5.648,0-7.809l4.387-4.383c2.156-2.156,5.646-2.156,7.808-0.005l14.481,14.442l40.813-40.813
	c1.035-1.035,2.438-1.617,3.902-1.617s2.87,0.582,3.905,1.617l4.427,4.426C300.043,249.223,300.043,252.715,297.887,254.871
	L297.887,254.871z"/>
<path id="large_x5F_pie_x5F_fill" class="st2 pie-fill" d="M139.711,89.66L93.762,100.18l10.519-45.949
	c-16.101-4.039-33.855,0.231-46.445,12.828c-19.07,19.063-19.07,49.979,0,69.047c19.066,19.067,49.98,19.067,69.051,0
	C139.477,123.515,143.75,105.762,139.711,89.66L139.711,89.66z"/>
<path id="large_x5F_pie_x5F_stroke" class="st1 pie-stroke" d="M139.711,89.66L93.762,100.18l10.519-45.949
	c-16.101-4.039-33.855,0.231-46.445,12.828c-19.07,19.063-19.07,49.979,0,69.047c19.066,19.067,49.98,19.067,69.051,0
	C139.477,123.515,143.75,105.762,139.711,89.66L139.711,89.66z"/>
<path id="small_x5F_pie_x5F_fill" class="st2 pie-fill" d="M140.152,53.789c-6.476-6.477-14.32-10.75-22.605-12.828L107.031,86.91
	l45.949-10.516C150.902,68.109,146.629,60.265,140.152,53.789L140.152,53.789z"/>
<path id="small_x5F_pie_x5F_stroke" class="st1 pie-stroke" d="M140.152,53.789c-6.476-6.477-14.32-10.75-22.605-12.828L107.031,86.91
	l45.949-10.516C150.902,68.109,146.629,60.265,140.152,53.789L140.152,53.789z"/>
<line id="first_x5F_bar" class="st0 bar" x1="59.926" y1="194.021" x2="77.75" y2="194.021"/>
<line id="second_x5F_bar" class="st0 bar" x1="60.926" y1="225.021" x2="125.156" y2="225.021"/>
<line id="third_x5F_bar" class="st0 bar" x1="60.926" y1="256.021" x2="115.25" y2="256.021"/>
</svg>
