<svg version="1.1" id="Layer_1" xmlns="http://www.w3.org/2000/svg" xmlns:xlink="http://www.w3.org/1999/xlink" x="0px" y="0px"
	 width="359.833px" height="361.5px" viewBox="0 0 359.833 361.5" style="enable-background:new 0 0 359.833 361.5;"
	 xml:space="preserve">

<defs>
	<style type="text/css">
		.st0{fill:none;stroke:#5BB659;stroke-width:18;stroke-linecap:round;stroke-miterlimit:10;}
		.st1{fill:none;stroke:#E5D38B;stroke-miterlimit:10;}
		.st2{fill:#E5D38B;}
		st1{fill:none;stroke:#E5D38B;stroke-miterlimit:10;}
		.bar {
			stroke-dasharray: 150;
			stroke-dashoffset: 0;
			-webkit-animation: bar_object 10s ease forwards;
			-moz-animation: bar_object 10s ease forwards;
			-o-animation: bar_object 10s ease forwards;
			animation: bar_object 10s ease forwards;
		}
		@-webkit-keyframes bar_object {
			from {
				stroke-dashoffset: 150;
			}
			to {
				stroke-dashoffset: 0;
			}
		}
		@-moz-keyframes bar_object {
			from {
				stroke-dashoffset: 150;
			}
			to {
				stroke-dashoffset: 0;
			}
		}
		@-o-keyframes bar_object {
			from {
				stroke-dashoffset: 150;
			}
			to {
				stroke-dashoffset: 0;
			}
		}
		@keyframes bar_object {
			from {
				stroke-dashoffset: 150;
			}
			to {
				stroke-dashoffset: 0;
			}
		}
		.st1 {			
			stroke-dasharray: 2020;
			stroke-dashoffset: 0;
			-webkit-animation: flip_object_stroke 5.5s ease 0.1s forwards;
			-moz-animation: flip_object_stroke 5.5s ease 0.1s forwards;
			-o-animation: flip_object_stroke 5.5s ease 0.1s forwards;
			animation: flip_object_stroke 5.5s ease 0.1s forwards;
		}
		@-webkit-keyframes flip_object_stroke {
			from {
				stroke-dashoffset: 2020;
			}
			to {
				stroke-dashoffset: 2;
				stroke: #5CB75B;
			}
		}
		@-moz-keyframes flip_object_stroke {
			from {
				stroke-dashoffset: 2020;
			}
			to {
				stroke-dashoffset: 0;
				stroke: #5CB75B;
			}
		}
		@-o-keyframes flip_object_stroke {
			from {
				stroke-dashoffset: 2020;
			}
			to {
				stroke-dashoffset: 0;
				stroke: #5CB75B;
			}
		}
		@keyframes flip_object_stroke {
			from {
				stroke-dashoffset: 2020;
			}
			to {
				stroke-dashoffset: 0;
				stroke: #5CB75B;
			}
		}
		.st2 {	
			-webkit-animation: flip_object_fill 1s ease 5s forwards;
			-moz-animation: flip_object_fill 1s ease 5s forwards;
			-o-animation: flip_object_fill 1s ease 5s forwards;
			animation: flip_object_fill 1s ease 5s forwards;
		}
		@-webkit-keyframes flip_object_fill {
			to {
				fill: #5CB75B;
			}
		}
		@-moz-keyframes flip_object_fill {
			to {
				fill: #5CB75B;
			}
		}
		@-o-keyframes flip_object_fill {
			to {
				fill: #5CB75B;
			}
		}
		@keyframes flip_object_fill {
			to {
				fill: #5CB75B;
			}
		}
	</style>
</defs>
<path id="flip_x5F_chart_x5F_fill" class="st2" d="M212.312,213.042H26.793V35.604h185.518v67.83l16.154,3.426V33.354
	c4.796-2.802,8.041-7.928,8.041-13.904c0-8.888-7.228-16.117-16.117-16.117H18.72c-8.882,0-16.117,7.229-16.117,16.117
	c0,5.976,3.251,11.102,8.072,13.904v187.765c0,4.426,3.615,8.077,8.044,8.077h49.721L39.444,337.924
	c-2.282,8.629,2.807,17.482,11.434,19.768c1.41,0.37,2.765,0.554,4.176,0.554c7.117,0,13.64-4.759,15.559-11.985l31.245-117.064
	h35.405l31.23,117.064c1.917,7.227,8.45,11.985,15.61,11.985c1.355,0,2.766-0.184,4.158-0.554
	c8.599-2.285,13.688-11.139,11.438-19.768l-29.025-108.729h49.716c4.464,0,8.076-3.651,8.076-8.077v-48.241l-16.154-3.467V213.042z
	 M212.312,213.042"/>
<path id="flip_x5F_chart_x5F_stroke" class="st1" d="M212.312,213.042H26.793V35.604h185.518v67.83l16.154,3.426V33.354
	c4.796-2.802,8.041-7.928,8.041-13.904c0-8.888-7.228-16.117-16.117-16.117H18.72c-8.882,0-16.117,7.229-16.117,16.117
	c0,5.976,3.251,11.102,8.072,13.904v187.765c0,4.426,3.615,8.077,8.044,8.077h49.721L39.444,337.924
	c-2.282,8.629,2.807,17.482,11.434,19.768c1.41,0.37,2.765,0.554,4.176,0.554c7.117,0,13.64-4.759,15.559-11.985l31.245-117.064
	h35.405l31.23,117.064c1.917,7.227,8.45,11.985,15.61,11.985c1.355,0,2.766-0.184,4.158-0.554
	c8.599-2.285,13.688-11.139,11.438-19.768l-29.025-108.729h49.716c4.464,0,8.076-3.651,8.076-8.077v-48.241l-16.154-3.467V213.042z
	 M212.312,213.042"/>
<path id="human_x5F_head_stroke" class="st1" d="M280.912,120.362c15.821,0,28.657-12.843,28.657-28.629
	c0-15.813-12.836-28.657-28.657-28.657c-15.786,0-28.619,12.807-28.619,28.657C252.293,107.52,265.126,120.362,280.912,120.362
	L280.912,120.362z M280.912,120.362"/>
<path id="human_x5F_head_Fill" class="st2" d="M280.912,120.362c15.821,0,28.657-12.843,28.657-28.629
	c0-15.813-12.836-28.657-28.657-28.657c-15.786,0-28.619,12.807-28.619,28.657C252.293,107.52,265.126,120.362,280.912,120.362
	L280.912,120.362z M280.912,120.362"/>
<path id="human_x5F_body_stroke" class="st1" d="M356.521,215.329l-29.619-76.678c-2.394-6.195-8.37-10.331-15.046-10.331h-15.711
	c-4.464,0-8.3,1.964-11.213,4.873l7.524,55.138l-11.544,9.739l-11.507-9.739l7.524-55.138c-2.914-2.909-6.75-4.873-11.212-4.873
	h-14.016l-92.463-19.722c-8.703-1.89-17.297,3.684-19.146,12.386c-1.881,8.742,3.693,17.298,12.396,19.138l94.16,20.137
	c0.959,0.189,1.955,0.306,2.95,0.332v74.618l-6.159,105.924c-0.516,8.922,6.27,16.522,15.158,17.074c0.333,0,0.664,0,0.96,0
	c8.481,0,15.598-6.603,16.117-15.195l5.273-90.838l5.312,90.838c0.479,8.593,7.597,15.195,16.08,15.195c0.293,0,0.628,0,0.958,0
	c8.889-0.552,15.675-8.152,15.159-17.074l-6.16-105.924v-44.923l14.163,36.697c3.21,8.298,12.576,12.428,20.876,9.22
	C355.597,232.996,359.728,223.664,356.521,215.329L356.521,215.329z M356.521,215.329"/>
<path id="human_x5F_body_Fill" class="st2" d="M356.521,215.329l-29.619-76.678c-2.394-6.195-8.37-10.331-15.046-10.331h-15.711
	c-4.464,0-8.3,1.964-11.213,4.873l7.524,55.138l-11.544,9.739l-11.507-9.739l7.524-55.138c-2.914-2.909-6.75-4.873-11.212-4.873
	h-14.016l-92.463-19.722c-8.703-1.89-17.297,3.684-19.146,12.386c-1.881,8.742,3.693,17.298,12.396,19.138l94.16,20.137
	c0.959,0.189,1.955,0.306,2.95,0.332v74.618l-6.159,105.924c-0.516,8.922,6.27,16.522,15.158,17.074c0.333,0,0.664,0,0.96,0
	c8.481,0,15.598-6.603,16.117-15.195l5.273-90.838l5.312,90.838c0.479,8.593,7.597,15.195,16.08,15.195c0.293,0,0.628,0,0.958,0
	c8.889-0.552,15.675-8.152,15.159-17.074l-6.16-105.924v-44.923l14.163,36.697c3.21,8.298,12.576,12.428,20.876,9.22
	C355.597,232.996,359.728,223.664,356.521,215.329L356.521,215.329z M356.521,215.329"/>
<line id="bar_x5F_one" class="st0 bar" x1="46.978" y1="187" x2="46.978" y2="118.75"/>
<line id="bar_x5F_two" class="st0 bar" x1="83.978" y1="187" x2="83.978" y2="61.75"/>
<line id="bar_x5F_three" class="st0 bar" x1="119.978" y1="187" x2="119.978" y2="94.5"/>
</svg>
