<svg version="1.1" id="Layer_1" xmlns="http://www.w3.org/2000/svg" xmlns:xlink="http://www.w3.org/1999/xlink" x="0px" y="0px"
	 width="214.151px" height="334.5px" viewBox="0 0 214.151 334.5" style="enable-background:new 0 0 214.151 334.5;"
	 xml:space="preserve">
<defs>
	<style type="text/css">
		.st0{fill:none;stroke:#F3FAB6;stroke-miterlimit:10;}
		.st1{fill:#F3FAB6;}
		.st2{fill:none;}
		.st0 {			
			stroke-dasharray: 730;
			stroke-dashoffset: 0;
			-webkit-animation: map_object_stroke 4s ease 0.5s forwards;
			-moz-animation: map_object_stroke 4s ease 0.5s forwards;
			-o-animation: map_object_stroke 4s ease 0.5s forwards;
			animation: map_object_stroke 4s ease 0.5s forwards;
		}
		@-webkit-keyframes map_object_stroke {
			from {
				stroke-dashoffset: 730;
			}
			to {
				stroke-dashoffset: 0;
				stroke: #5CB75B;
			}
		}
		@-moz-keyframes map_object_stroke {
			from {
				stroke-dashoffset: 730;
			}
			to {
				stroke-dashoffset: 0;
				stroke: #5CB75B;
			}
		}
		@-o-keyframes map_object_stroke {
			from {
				stroke-dashoffset: 730;
			}
			to {
				stroke-dashoffset: 0;
				stroke: #5CB75B;
			}
		}

		@keyframes map_object_stroke {
			from {
				stroke-dashoffset: 730;
			}
			to {
				stroke-dashoffset: 0;
				stroke: #5CB75B;
			}
		}
		.st1 {	
			-webkit-animation: map_object_fill 4s ease 3s forwards;
			-moz-animation: map_object_fill 4s ease 3s forwards;
			-o-animation: map_object_fill 4s ease 3s forwards;
			animation: map_object_fill 4s ease 3s forwards;
		}

		@-webkit-keyframes map_object_fill {
			to {
				fill: #5CB75B;
			}
		}
		@-moz-keyframes map_object_fill {
			to {
				fill: #5CB75B;
			}
		}
		@-o-keyframes map_object_fill {
			to {
				fill: #5CB75B;
			}
		}
		@keyframes map_object_fill {
			to {
				fill: #5CB75B;
			}
		}
	</style>
</defs>
<g>
	<path id="zone_x5F_fill_x5F_8" class="st1" d="M205.824,204.935c-1.726,0-4.281,0.602-6.667,3.431l-60.893,66.912
		c-2.184,2.584-3.074,5.861-2.383,8.962c0.66,3.102,2.784,5.716,5.657,7.066l57.935,30.332c1.523,0.73,3.103,1.091,4.654,1.091
		c5.17,0,9.076-4.194,9.076-9.736v-99.27C213.204,207.664,209.385,204.935,205.824,204.935L205.824,204.935z M201.428,309.4
		l-53.024-27.775l53.024-58.279V309.4z M201.428,309.4"/>
	<path id="zone_x5F_fill_x5F_7" class="st1" d="M87.224,289.354c-1.15-3.046-3.817-5.201-7.354-5.933l-62.761-13.056
		c-6.689-1.378-12.84,3.677-12.84,10.456v40.441c0,6.492,5.29,11.791,11.774,11.791h34.562c5.109,0,11.051-2.973,14.124-7.007
		l20.803-27.417C87.708,295.758,88.339,292.367,87.224,289.354L87.224,289.354z M55.34,318.908c-0.833,1.12-3.332,2.354-4.735,2.354
		H16.043v-39.092l58.054,12.064L55.34,318.908z M55.34,318.908"/>
	<path id="zone_x5F_fill_x5F_6" class="st1" d="M16.043,179.484h16.545c5.8,0,11.521-4.186,13.244-9.729l7.868-25.05
		c1.037-3.275,0.552-6.635-1.318-9.226c-1.895-2.577-4.94-4.042-8.388-4.042H16.043c-6.484,0-11.774,5.277-11.774,11.774v24.501
		C4.269,174.199,9.559,179.484,16.043,179.484L16.043,179.484z M16.043,143.212H41.84l-7.237,23.006
		c-0.206,0.661-1.353,1.495-2.044,1.495H16.043V143.212z M16.043,143.212"/>
	<path id="zone_x5F_fill_x5F_5" class="st1" d="M112.418,28.521c-17.644,0-32.007,14.333-32.007,31.995
		c0,17.639,14.363,32.003,32.007,32.003c17.632,0,31.994-14.364,31.994-32.003C144.412,42.854,130.05,28.521,112.418,28.521
		L112.418,28.521z M112.418,86.625c-14.396,0-26.114-11.718-26.114-26.109c0-14.42,11.719-26.142,26.114-26.142
		c14.387,0,26.105,11.722,26.105,26.142C138.523,74.907,126.805,86.625,112.418,86.625L112.418,86.625z M112.418,86.625"/>
	<path id="zone_x5F_fill_x5F_4" class="st1" d="M157.509,317.012l-41.046-20.825c-5.432-2.785-13.13-1.263-17.114,3.277
		l-14.912,16.975c-3.845,4.407-2.729,8.272-2.068,9.767c0.661,1.463,2.848,4.883,8.679,4.883h63.103
		c6.376,0,8.128-3.391,8.616-5.386C163.254,323.705,163.196,319.899,157.509,317.012L157.509,317.012z M97.592,319.312
		l10.603-12.064c0.456-0.504,2.183-0.977,2.96-0.575l24.869,12.64H97.592z M97.592,319.312"/>
	<path id="zone_x5F_fill_x5F_3" class="st1" d="M147.062,127.476l16.738-33.78l6.692-15.457c3.504-11.547,3.103-23.553-1.148-35.701
		C158.458,11.485,124.362-4.913,93.281,5.97c-31.043,10.89-47.449,45.01-36.559,76.06c0.316,0.861,8.469,23.673,17.78,49.578
		c-5.177,0.777-9.884,4.653-11.346,9.682l-7.442,25.018c-0.978,3.272-0.435,6.601,1.463,9.156c1.897,2.571,4.97,4.021,8.391,4.021
		h26.081c5.86,16.33,10.083,28.092,10.083,28.092c1.293,3.706,3.757,3.864,5.515,0.344l22.515-45.491v17.888
		c0,7.9,4.942,13.444,12.007,13.444c2.297,0,4.683-0.634,7.038-1.838l36.019-18.613c1.58-0.826,3.563-1.261,5.572-1.261
		c2.814,0,4.74,0.829,5.63,1.641c2.987,2.663,5.745,3.211,7.525,3.211c4.798,0,9.651-3.936,9.651-12.747v-15.055
		c0-9.733-7.899-17.661-17.637-17.661l0,0h-48.169c-0.805,0-1.607,0.141-2.412,0.227L147.062,127.476 M67.543,167.713l6.868-23.091
		c0.202-0.604,1.296-1.41,1.929-1.41h2.294c2.984,8.328,6.007,16.69,8.785,24.501H67.543z M104.519,170.386
		c0,0-33.355-92.26-33.722-93.296c-8.165-23.294,4.133-48.885,27.426-57.046c23.298-8.153,48.859,4.141,57.047,27.436
		c4.05,11.542,3.475,22.719-1.695,33.228l-44.521,89.937C107.613,173.566,105.578,173.432,104.519,170.386L104.519,170.386z
		 M201.457,163.146c-6.004-3.593-15.339-3.768-22.031-0.288l-36.021,18.608c-0.86,0.432-1.406,0.518-1.608,0.518
		c-0.114-0.229-0.258-0.775-0.258-1.667V149.07c0-1.551,0.604-3.017,1.723-4.132c1.091-1.126,2.587-1.727,4.137-1.727h48.169
		c3.247,0,5.89,2.646,5.89,5.887V163.146z M201.457,163.146"/>
	<path id="zone_x5F_fill_x5F_2" class="st1" d="M12.682,259.451l67.849,15.511c0.918,0.215,1.866,0.315,2.846,0.315
		c4.94,0,9.847-2.758,12.238-6.822l10.821-18.311c3.043-5.199,1.866-12.365-2.64-16.328l-13.619-11.936
		c-1.177-1.005-2.441-3.763-2.441-5.313V198.47c0-6.491-5.249-11.747-11.741-11.747h-61.87c-6.463,0-11.752,5.256-11.752,11.747
		v48.056C2.374,252.527,6.801,258.101,12.682,259.451L12.682,259.451z M14.154,198.47h61.841v18.098
		c0,4.939,2.697,10.913,6.437,14.203l13.607,11.877c0.313,0.288,0.461,1.178,0.235,1.522l-10.771,18.297
		c-0.287,0.473-1.296,1.048-2.126,1.048l-68.078-15.554c-0.491-0.114-1.145-0.947-1.145-1.465V198.47z M14.154,198.47"/>
	<path id="zone_x5F_fill_x5F_1" class="st1" d="M100.288,277.646c0.897,3.016,3.024,5.53,5.979,7.053l1.436,0.66
		c1.749,0.891,3.767,1.351,5.832,1.351c4.049,0,7.899-1.738,10.312-4.653l57.85-67.859c3.533-4.279,2.383-8.057,1.751-9.465
		c-0.66-1.407-2.786-4.711-8.358-4.769l-41.765-0.4c-5.313,0-11.172,3.316-13.729,7.524l-4.968,7.267
		c-3.279,5.386-1.753,12.668,3.417,16.258l2.614,1.811c0.46,0.344,1.005,1.206,1.119,1.779l-20.332,34.44
		C99.833,271.399,99.431,274.589,100.288,277.646L100.288,277.646z M132.175,239.746c3.419-5.771,0.287-13.414-4.796-16.961
		l-2.901-2.024l4.999-7.268c0.602-1.006,2.642-2.153,3.847-2.153l35.044,0.344l-53.512,62.818c-0.173,0.173-0.689,0.46-1.321,0.46
		l-1.722-0.66L132.175,239.746z M132.175,239.746"/>
</g>
<g>
	<path id="zone_x5F_stroke_x5F_8" class="st0" d="M205.824,204.935c-1.726,0-4.281,0.602-6.667,3.431l-60.893,66.912
		c-2.184,2.584-3.074,5.861-2.383,8.962c0.66,3.102,2.784,5.716,5.657,7.066l57.935,30.332c1.523,0.73,3.103,1.091,4.654,1.091
		c5.17,0,9.076-4.194,9.076-9.736v-99.27C213.204,207.664,209.385,204.935,205.824,204.935L205.824,204.935z M201.428,309.4
		l-53.024-27.775l53.024-58.279V309.4z M201.428,309.4"/>
	<path id="zone_x5F_stroke_x5F_7" class="st0" d="M87.224,289.354c-1.15-3.046-3.817-5.201-7.354-5.933l-62.761-13.056
		c-6.689-1.378-12.84,3.677-12.84,10.456v40.441c0,6.492,5.29,11.791,11.774,11.791h34.562c5.109,0,11.051-2.973,14.124-7.007
		l20.803-27.417C87.708,295.758,88.339,292.367,87.224,289.354L87.224,289.354z M55.34,318.908c-0.833,1.12-3.332,2.354-4.735,2.354
		H16.043v-39.092l58.054,12.064L55.34,318.908z M55.34,318.908"/>
	<path id="zone_x5F_stroke_x5F_6" class="st0" d="M16.043,179.484h16.545c5.8,0,11.521-4.186,13.244-9.729l7.868-25.05
		c1.037-3.275,0.552-6.635-1.318-9.226c-1.895-2.577-4.94-4.042-8.388-4.042H16.043c-6.484,0-11.774,5.277-11.774,11.774v24.501
		C4.269,174.199,9.559,179.484,16.043,179.484L16.043,179.484z M16.043,143.212H41.84l-7.237,23.006
		c-0.206,0.661-1.353,1.495-2.044,1.495H16.043V143.212z M16.043,143.212"/>
	<path id="zone_x5F_stroke_x5F_5" class="st0" d="M112.418,28.521c-17.644,0-32.007,14.333-32.007,31.995
		c0,17.639,14.363,32.003,32.007,32.003c17.632,0,31.994-14.364,31.994-32.003C144.412,42.854,130.05,28.521,112.418,28.521
		L112.418,28.521z M112.418,86.625c-14.396,0-26.114-11.718-26.114-26.109c0-14.42,11.719-26.142,26.114-26.142
		c14.387,0,26.105,11.722,26.105,26.142C138.523,74.907,126.805,86.625,112.418,86.625L112.418,86.625z M112.418,86.625"/>
	<path id="zone_x5F_stroke_x5F_4" class="st0" d="M157.509,317.012l-41.046-20.825c-5.432-2.785-13.13-1.263-17.114,3.277
		l-14.912,16.975c-3.845,4.407-2.729,8.272-2.068,9.767c0.661,1.463,2.848,4.883,8.679,4.883h63.103
		c6.376,0,8.128-3.391,8.616-5.386C163.254,323.705,163.196,319.899,157.509,317.012L157.509,317.012z M97.592,319.312
		l10.603-12.064c0.456-0.504,2.183-0.977,2.96-0.575l24.869,12.64H97.592z M97.592,319.312"/>
	<path id="zone_x5F_stroke_x5F_3" class="st0" d="M147.062,127.476l16.738-33.78l6.692-15.457
		c3.504-11.547,3.103-23.553-1.148-35.701C158.458,11.485,124.362-4.913,93.281,5.97c-31.043,10.89-47.449,45.01-36.559,76.06
		c0.316,0.861,8.469,23.673,17.78,49.578c-5.177,0.777-9.884,4.653-11.346,9.682l-7.442,25.018
		c-0.978,3.272-0.435,6.601,1.463,9.156c1.897,2.571,4.97,4.021,8.391,4.021h26.081c5.86,16.33,10.083,28.092,10.083,28.092
		c1.293,3.706,3.757,3.864,5.515,0.344l22.515-45.491v17.888c0,7.9,4.942,13.444,12.007,13.444c2.297,0,4.683-0.634,7.038-1.838
		l36.019-18.613c1.58-0.826,3.563-1.261,5.572-1.261c2.814,0,4.74,0.829,5.63,1.641c2.987,2.663,5.745,3.211,7.525,3.211
		c4.798,0,9.651-3.936,9.651-12.747v-15.055c0-9.733-7.899-17.661-17.637-17.661l0,0h-48.169c-0.805,0-1.607,0.141-2.412,0.227
		L147.062,127.476 M67.543,167.713l6.868-23.091c0.202-0.604,1.296-1.41,1.929-1.41h2.294c2.984,8.328,6.007,16.69,8.785,24.501
		H67.543z M104.519,170.386c0,0-33.355-92.26-33.722-93.296c-8.165-23.294,4.133-48.885,27.426-57.046
		c23.298-8.153,48.859,4.141,57.047,27.436c4.05,11.542,3.475,22.719-1.695,33.228l-44.521,89.937
		C107.613,173.566,105.578,173.432,104.519,170.386L104.519,170.386z M201.457,163.146c-6.004-3.593-15.339-3.768-22.031-0.288
		l-36.021,18.608c-0.86,0.432-1.406,0.518-1.608,0.518c-0.114-0.229-0.258-0.775-0.258-1.667V149.07
		c0-1.551,0.604-3.017,1.723-4.132c1.091-1.126,2.587-1.727,4.137-1.727h48.169c3.247,0,5.89,2.646,5.89,5.887V163.146z
		 M201.457,163.146"/>
	<path id="zone_x5F_stroke_x5F_2" class="st0" d="M12.682,259.451l67.849,15.511c0.918,0.215,1.866,0.315,2.846,0.315
		c4.94,0,9.847-2.758,12.238-6.822l10.821-18.311c3.043-5.199,1.866-12.365-2.64-16.328l-13.619-11.936
		c-1.177-1.005-2.441-3.763-2.441-5.313V198.47c0-6.491-5.249-11.747-11.741-11.747h-61.87c-6.463,0-11.752,5.256-11.752,11.747
		v48.056C2.374,252.527,6.801,258.101,12.682,259.451L12.682,259.451z M14.154,198.47h61.841v18.098
		c0,4.939,2.697,10.913,6.437,14.203l13.607,11.877c0.313,0.288,0.461,1.178,0.235,1.522l-10.771,18.297
		c-0.287,0.473-1.296,1.048-2.126,1.048l-68.078-15.554c-0.491-0.114-1.145-0.947-1.145-1.465V198.47z M14.154,198.47"/>
	<path id="zone_x5F_stroke_x5F_1" class="st0" d="M100.288,277.646c0.897,3.016,3.024,5.53,5.979,7.053l1.436,0.66
		c1.749,0.891,3.767,1.351,5.832,1.351c4.049,0,7.899-1.738,10.312-4.653l57.85-67.859c3.533-4.279,2.383-8.057,1.751-9.465
		c-0.66-1.407-2.786-4.711-8.358-4.769l-41.765-0.4c-5.313,0-11.172,3.316-13.729,7.524l-4.968,7.267
		c-3.279,5.386-1.753,12.668,3.417,16.258l2.614,1.811c0.46,0.344,1.005,1.206,1.119,1.779l-20.332,34.44
		C99.833,271.399,99.431,274.589,100.288,277.646L100.288,277.646z M132.175,239.746c3.419-5.771,0.287-13.414-4.796-16.961
		l-2.901-2.024l4.999-7.268c0.602-1.006,2.642-2.153,3.847-2.153l35.044,0.344l-53.512,62.818c-0.173,0.173-0.689,0.46-1.321,0.46
		l-1.722-0.66L132.175,239.746z M132.175,239.746"/>
</g>
<rect id="boundary" x="2.374" y="3.022" class="st2" width="211.778" height="330.478"/>
</svg>
